<svg xmlns="http://www.w3.org/2000/svg" viewBox="0 0 24 33" width="24" height="33"><defs></defs><g transform="matrix(1,0,0,1,-38,-14)">
<g transform="matrix(1,0,0,1,38,14)">
	<g>
		<g transform="matrix(1,0,0,1,-76.314881053,6.43712154)">
			<g>
				<g/>
			</g>
		</g>
	</g>
	<g>
		<g transform="matrix(1,0,0,1,-68.46902566,10.096145164)">
			<g>
				<g>
					<g>
						<path d="M92.41102633214186,-0.4025515661011241 C92.41102633214186,-2.855551634765675 90.32002482152174,-4.795551691986134 87.71502527928541,-4.795551691986134 C87.26002535557936,-4.795551691986134 86.79902491307448,-4.6925517663727305 86.33902582860182,-4.589551840759327 C85.57402643895338,-6.939551745391896 83.22402605748366,-8.624551688171437 80.46702608800123,-8.624551688171437 C77.71002611851881,-8.624551688171437 75.35902580952833,-6.939551745391896 74.59502587056349,-4.589551840759327 C74.18902573323439,-4.746551667190602 73.67902550435255,-4.795551691986134 73.21902546620558,-4.795551691986134 C70.61402568555067,-4.795551691986134 68.46902565992067,-2.8025516614685557 68.46902565992067,-0.40355197045903424 C68.46902565992067,1.6924487009276845 70.051025602581,3.479448403381298 72.19602570271681,3.886447991393993 C72.19602570271681,3.886447991393993 72.19602570271681,8.351448143981884 72.19602570271681,8.351448143981884 C72.19602570271681,8.91444786932368 72.65602574086378,9.37444886114497 73.21902546620558,9.37444886114497 C73.21902546620558,9.37444886114497 87.71902498936842,9.37444886114497 87.71902498936842,9.37444886114497 C88.27702555394362,9.37444886114497 88.7380259964485,8.91444786932368 88.68402514195631,8.404447640441845 C88.68402514195631,8.404447640441845 88.68402514195631,3.8874483957519033 88.68402514195631,3.8874483957519033 C90.82902559971998,3.4274483576049306 92.41102633214186,1.6884480371703603 92.41102633214186,-0.4025515661011241M87.77802500462721,1.947447861694286 C87.21502527928541,1.947447861694286 86.75502619481276,2.4074478998412587 86.75502619481276,2.970448578857372 C86.75502619481276,2.970448578857372 86.75502619481276,7.3814488306273915 86.75502619481276,7.3814488306273915 C86.75502619481276,7.3814488306273915 74.18902573323439,7.3814488306273915 74.18902573323439,7.3814488306273915 C74.18902573323439,7.3814488306273915 74.1940258476753,2.970448578857372 74.1940258476753,2.970448578857372 C74.1940258476753,2.4074478998412587 73.73402580952833,1.947447861694286 73.17102560734938,1.947447861694286 C71.6870256397743,1.947447861694286 70.46302566266249,0.9244480982055165 70.46302566266249,-0.4025515661011241 C70.46302566266249,-1.6805519208679698 71.69202575421522,-2.7525514707336924 73.17102560734938,-2.7525514707336924 C73.72902569508742,-2.7525514707336924 74.27802548146437,-2.5765518293152354 74.7530258629341,-2.292551909423878 C75.35002550816725,-1.9395517453918956 76.24702582097242,-2.2585515126953624 76.34002575612257,-3.110551749206593 C76.43802580571364,-5.098551665283253 78.22502550816725,-6.6315516576538585 80.47302565312575,-6.6315516576538585 C82.71602568364332,-6.6315516576538585 84.50302538609694,-5.049551640487721 84.60602602696608,-3.110551749206593 C84.67002520299147,-2.356551562286427 85.52702555394362,-1.8815516576538585 86.19302592015455,-2.292551909423878 C86.66302523350905,-2.586551581359913 87.212025019886,-2.7525514707336924 87.7750247452278,-2.7525514707336924 C89.25902590489576,-2.7525514707336924 90.48302492833326,-1.729551707244923 90.48302492833326,-0.4025515661011241 C90.48302492833326,0.8754483118285634 89.25402483678053,1.947447861694286 87.78002581334303,1.947447861694286" fill="#FC601D"/>
					</g>
				</g>
			</g>
		</g>
	</g>
	<g>
		<g transform="matrix(1.061350048,0,0,1,-10.229112838,8.712182182)">
			<path d="M14.944186028293295,10.359460875458666 C14.944186028293295,10.359460875458666 26.944186028293295,10.359460875458666 26.944186028293295,10.359460875458666 C28.04875641708724,10.359460875458666 28.944186028293295,11.254891440339037 28.944186028293295,12.359460875458666 C28.944186028293295,12.359460875458666 28.944186028293295,20.359460875458666 28.944186028293295,20.359460875458666 C28.944186028293295,21.46403126425261 28.04875641708724,22.359460875458666 26.944186028293295,22.359460875458666 C26.944186028293295,22.359460875458666 14.944186028293295,22.359460875458666 14.944186028293295,22.359460875458666 C13.839616593173666,22.359460875458666 12.944186028293295,21.46403126425261 12.944186028293295,20.359460875458666 C12.944186028293295,20.359460875458666 12.944186028293295,12.359460875458666 12.944186028293295,12.359460875458666 C12.944186028293295,11.254891440339037 13.839616593173666,10.359460875458666 14.944186028293295,10.359460875458666 C14.944186028293295,10.359460875458666 14.944186028293295,10.359460875458666 14.944186028293295,10.359460875458666 Z" fill="none" stroke="#FC601D" stroke-width="2" stroke-linecap="round" stroke-linejoin="round"/>
		</g>
		<g transform="matrix(1.061350048,0,0,1,-10.229112838,8.712182182)">
			<path d="M10.944186028293295,16.359460875458666 C10.944186028293295,16.359460875458666 12.944186028293295,16.359460875458666 12.944186028293295,16.359460875458666" fill="none" stroke="#FC601D" stroke-width="2" stroke-linecap="round" stroke-linejoin="round"/>
		</g>
		<g transform="matrix(1.061350048,0,0,1,-10.229112838,8.712182182)">
			<path d="M28.944186028293295,16.359460875458666 C28.944186028293295,16.359460875458666 30.944186028293295,16.359460875458666 30.944186028293295,16.359460875458666" fill="none" stroke="#FC601D" stroke-width="2" stroke-linecap="round" stroke-linejoin="round"/>
		</g>
		<g transform="matrix(1.061350048,0,0,1,-10.229112838,8.712182182)">
			<path d="M23.944186028293295,15.359460875458666 C23.944186028293295,15.359460875458666 23.944186028293295,17.359460875458666 23.944186028293295,17.359460875458666" fill="none" stroke="#FC601D" stroke-width="2" stroke-linecap="round" stroke-linejoin="round"/>
		</g>
		<g transform="matrix(1.061350048,0,0,1,-10.229112838,8.712182182)">
			<path d="M17.944186028293295,15.359460875458666 C17.944186028293295,15.359460875458666 17.944186028293295,17.359460875458666 17.944186028293295,17.359460875458666" fill="none" stroke="#FC601D" stroke-width="2" stroke-linecap="round" stroke-linejoin="round"/>
		</g>
	</g>
</g></g></svg>